# xmcd CD database file
#
# Track frame offsets:
#	150
#	23652
#	53390
#	80322
#	114710
#	132887
#
# Disc length: 1996 seconds
#
# Revision: 2
# Processed by: cddbd v1.5.2PL0 Copyright (c) Steve Scherf et al.
# Submitted via: CDex 1.51
#
DISCID=3d07ca06
DTITLE=The Pasadenas - Definitive Collection [CD 2)
DYEAR=1997
DGENRE=Pop
TTITLE0=Tribute (Right on) (The Screaming Cat Mix)
TTITLE1=Riding on a Train (Extended Version)
TTITLE2=Love Thing (First Day of Spring Mix)
TTITLE3=Reeling (Extended Version)
TTITLE4=I'm doing fine now (Silky Soul Mix)
TTITLE5=Enchanted Lady (A Capella Version)
EXTD=Columbia Records YEAR: 1997
EXTT0=
EXTT1=
EXTT2=
EXTT3=
EXTT4=
EXTT5=
PLAYORDER=
